<svg xmlns="http://www.w3.org/2000/svg" viewBox="0 0 12 12" width="96" height="96" shape-rendering="crispEdges"><path fill="#1d1d2b" d="M4 1h4v1h-4zM3 2h1v1h-1zM8 2h1v1h-1zM2 3h1v1h-1zM9 3h1v1h-1zM2 4h1v1h-1zM4 4h1v1h-1zM9 4h1v1h-1zM2 5h1v1h-1zM9 5h1v1h-1zM2 6h1v1h-1zM10 6h1v1h-1zM2 7h1v1h-1zM8 7h1v1h-1zM3 8h1v1h-1zM8 8h1v1h-1zM3 9h2v1h-2zM6 9h2v1h-2z"/><path fill="#3a86ff" d="M4 2h4v1h-4zM3 3h6v1h-6zM3 4h1v1h-1zM5 4h4v1h-4zM3 5h5v1h-5zM3 6h5v1h-5zM3 7h5v1h-5zM4 8h4v1h-4z"/><path fill="#f29b38" d="M8 5h1v1h-1zM8 6h2v1h-2z"/><path fill="#ffd23f" d="M3 10h1v1h-1zM7 10h1v1h-1z"/></svg>