<svg xmlns="http://www.w3.org/2000/svg" viewBox="0 0 12 12" width="96" height="96" shape-rendering="crispEdges"><path fill="#1d1d2b" d="M4 1h4v1h-4zM2 2h2v1h-2zM8 2h2v1h-2zM1 3h1v1h-1zM10 3h1v1h-1zM1 4h1v1h-1zM10 4h1v1h-1zM0 5h2v1h-2zM10 5h2v1h-2zM0 6h1v1h-1zM3 6h1v1h-1zM6 6h1v1h-1zM9 6h1v1h-1zM11 6h1v1h-1zM0 7h1v1h-1zM11 7h1v1h-1zM1 8h10v1h-10zM2 9h1v1h-1zM4 9h1v1h-1zM7 9h1v1h-1zM9 9h1v1h-1z"/><path fill="#8ac926" d="M4 2h4v1h-4zM2 3h2v1h-2zM5 3h2v1h-2zM8 3h2v1h-2zM2 4h1v1h-1zM4 4h4v1h-4zM9 4h1v1h-1zM2 5h8v1h-8z"/><path fill="#2d6a4f" d="M4 3h1v1h-1zM7 3h1v1h-1zM3 4h1v1h-1zM8 4h1v1h-1z"/><path fill="#ffd23f" d="M1 6h2v1h-2zM4 6h2v1h-2zM7 6h2v1h-2zM10 6h1v1h-1zM1 7h10v1h-10z"/></svg>